{
  "title": "Th.[El.Club].2015.1080p.BRRip.x264.AC3.HORiZON-ArtSubs",
  "uid": 14551692,
  "size": 1756261123,
  "categoryP": "video",
  "categoryS": "movies",
  "magnet": "?xt=urn:btih:550ef286fb795846d5e0170a4cc68b3d8f5e2ee1&amp;dn=Th.%5BEl.Club%5D.2015.1080p.BRRip.x264.AC3.HORiZON-ArtSubs&amp;tr=udp%3A%2F%2Ftracker.leechers-paradise.org%3A6969&amp;tr=udp%3A%2F%2Fzer0day.ch%3A1337&amp;tr=udp%3A%2F%2Fopen.demonii.com%3A1337&amp;tr=udp%3A%2F%2Ftracker.coppersurfer.tk%3A6969&amp;tr=udp%3A%2F%2Fexodus.desync.com%3A6969",
  "seeders": 59,
  "leechers": 8,
  "uploader": "noriegaRJ",
  "files": 1,
  "time": 1462664281,
  "description": "Title: El Club aka The Club\r\n\r\nRelease:\n\r\n\r\nIMDB Link:                                                         \nhttp://www.imdb.com/title/tt4375438/\r\n\r\n\r\nPlot: A crisis counselor is sent by the Catholic Church to a small Chilean beach town where disgraced priests and nuns, suspected of crimes ranging from child abuse to baby-snatching from unwed mothers, live secluded, after an incident occurs.\r\n\r\n\r\nENGLISH AND BRAZILIAN PORTUGUESE SUBTITLES INSIDE MKV FILE.\r\n\r\n\r\n\r\nGeneral\r\nComplete name                            :\nFormat                                   : Matroska\r\nFormat version                           : Version 2\r\nFile size                                : 1.64 GiB\r\nDuration                                 : 1h 37mn\r\nOverall bit rate                         : 2 411 Kbps\r\nWriting application                      : HandBrake 0.9.5\r\nWriting library                          : libmkv 0.6.4.1\r\n\r\nVideo\r\nID                                       : 1\r\nFormat                                   : AVC\r\nFormat/Info                              : Advanced Video Codec\r\nFormat profile                           :   \r\nFormat settings, CABAC                   : Yes\r\nFormat settings, ReFrames                : 4 frames\r\nCodec ID                                 : V_MPEG4/ISO/AVC\r\nDuration                                 : 1h 37mn\r\nBit rate                                 : 1 803 Kbps\r\nWidth                                    : 1 920 pixels\r\nHeight                                   : 800 pixels\r\nDisplay aspect ratio                     : 2.40:1\r\nFrame rate mode                          : Constant\r\nFrame rate                               : 23.976 fps\r\nColor space                              : YUV\r\nChroma subsampling                       : 4:2:0\r\nBit depth                                : 8 bits\r\nScan type                                : Progressive\r\nBits/(Pixel*Frame)                       : 0.049\r\nStream size                              : 1.17 GiB (71%)\r\nWriting library                          : x264 core 112\r\nLanguage                                 : English\r\nDefault                                  : Yes\r\nForced                                   : No\r\nColor primaries                          : BT.709\r\nTransfer characteristics                 : BT.709\r\nMatrix coefficients                      : BT.709\r\n\r\nAudio\r\nID                                       : 2\r\nFormat                                   : AC-3\r\nFormat/Info                              : Audio Coding 3\r\nMode extension                           : CM (complete main)\r\nFormat settings, Endianness              : Big\r\nCodec ID                                 : A_AC3\r\nDuration                                 : 1h 37mn\r\nBit rate mode                            : Constant\r\nBit rate                                 : 640 Kbps\r\nChannel count                            : 6 channels\r\nChannel positions                        : Front: L C R, Side: L R, LFE\r\nSampling rate                            : 48.0 KHz\r\nBit depth                                : 16 bits\r\nCompression mode                         : Lossy\r\nStream size                              : 445 MiB (27%)\r\nLanguage                                 : Spanish\r\nDefault                                  : Yes\r\nForced                                   : No\r\n\r\nText #1\r\nID                                       : 3\r\nFormat                                   : UTF-8\r\nCodec ID                                 : S_TEXT/UTF8\r\nCodec ID/Info                            : UTF-8 Plain Text\r\nLanguage                                 : English\r\nDefault                                  : No\r\nForced                                   : No\r\n\r\nText #2\r\nID                                       : 4\r\nFormat                                   : UTF-8\r\nCodec ID                                 : S_TEXT/UTF8\r\nCodec ID/Info                            : UTF-8 Plain Text\r\nLanguage                                 : Portuguese\r\nDefault                                  : No\r\nForced                                   : No\r\n\r\n\r\n\r\nThanks to those helping me seed. Leechers remember, the community depends on you. If nobody shares, the freebies go away. Remember, the only reason you can download this free movie is because others are generous enough to keep sharing it with you. If nobody shares, everybody loses, so even if its for an extra hour or two after you get it, remember, others want to see it too, and they can't without you.\r\n\r\n\r\nSEE MY OTHERS UPLOADS:                                                                                 \nhttp://thepiratebay.se/user/noriegaRJ\r\n\r\nAND SEE THIS ANOTHERS UPLOADS FROM &quot;HORiZON-ArtSubs&quot;:                                 \nhttp://thepiratebay.se/user/artsubs                                 \nhttp://thepiratebay.se/user/lletaif",
  "parsed": {
    "xt": "urn:btih:550ef286fb795846d5e0170a4cc68b3d8f5e2ee1",
    "dn": "Th.[El.Club].2015.1080p.BRRip.x264.AC3.HORiZON-ArtSubs",
    "tr": [
      "udp://exodus.desync.com:6969",
      "udp://open.demonii.com:1337",
      "udp://tracker.coppersurfer.tk:6969",
      "udp://tracker.leechers-paradise.org:6969",
      "udp://zer0day.ch:1337"
    ],
    "infoHash": "550ef286fb795846d5e0170a4cc68b3d8f5e2ee1",
    "infoHashBuffer": {
      "type": "Buffer",
      "data": [
        85,
        14,
        242,
        134,
        251,
        121,
        88,
        70,
        213,
        224,
        23,
        10,
        76,
        198,
        139,
        61,
        143,
        94,
        46,
        225
      ]
    },
    "name": "Th.[El.Club].2015.1080p.BRRip.x264.AC3.HORiZON-ArtSubs",
    "announce": [
      "udp://exodus.desync.com:6969",
      "udp://open.demonii.com:1337",
      "udp://tracker.coppersurfer.tk:6969",
      "udp://tracker.leechers-paradise.org:6969",
      "udp://zer0day.ch:1337"
    ],
    "urlList": []
  },
  "previous": 94,
  "peers": 97,
  "last_updated": "2016-12-27T00:35:02.041Z"
}